<svg width="48" height="46" viewBox="0 0 48 46" fill="none" xmlns="http://www.w3.org/2000/svg">
<path d="M18.0005 9.99993H14.0005C11.7914 9.99993 10.0005 11.6629 10.0005 13.7142V36C10.0005 38.0513 11.7914 39.7143 14.0005 39.7143H34.0005C36.2097 39.7143 38.0005 38.0513 38.0005 36V13.7142C38.0005 11.6629 36.2097 9.99993 34.0005 9.99993H30.0005M18.0005 9.99993C18.0005 12.0513 19.7914 13.7142 22.0005 13.7142H26.0005C28.2097 13.7142 30.0005 12.0513 30.0005 9.99993M18.0005 9.99993C18.0005 7.94859 19.7914 6.28564 22.0005 6.28564H26.0005C28.2097 6.28564 30.0005 7.94859 30.0005 9.99993M24.0005 23H30.0005M24.0005 30.4285H30.0005M18.0005 23H18.0205M18.0005 30.4285H18.0205" stroke="#C1C1C1" stroke-width="3.34286" stroke-linecap="round"/>
</svg>
