<svg width="28" height="27" viewBox="0 0 28 27" fill="none" xmlns="http://www.w3.org/2000/svg">
<path d="M3.5 13.772L5.83334 11.6053M5.83334 11.6053L14 4.02197L22.1667 11.6053M5.83334 11.6053V22.4387C5.83334 23.037 6.35567 23.522 7.00001 23.522H10.5M22.1667 11.6053L24.5 13.772M22.1667 11.6053V22.4387C22.1667 23.037 21.6444 23.522 21 23.522H17.5M10.5 23.522C11.1443 23.522 11.6667 23.037 11.6667 22.4387V18.1053C11.6667 17.507 12.189 17.022 12.8334 17.022H15.1667C15.811 17.022 16.3334 17.507 16.3334 18.1053V22.4387C16.3334 23.037 16.8557 23.522 17.5 23.522M10.5 23.522H17.5" stroke="#777777" stroke-width="1.95" stroke-linecap="round" stroke-linejoin="round"/>
</svg>
