<svg width="20" height="22" viewBox="0 0 20 22" fill="none" xmlns="http://www.w3.org/2000/svg">
<path d="M6.50017 3.18864H4.16683C2.87817 3.18864 1.8335 4.1587 1.8335 5.35532V18.3553C1.8335 19.552 2.87817 20.522 4.16683 20.522H15.8335C17.1222 20.522 18.1669 19.552 18.1669 18.3553V5.35532C18.1669 4.1587 17.1222 3.18864 15.8335 3.18864H13.5002M6.50017 3.18864C6.50017 4.38526 7.54484 5.35532 8.83351 5.35532H11.1669C12.4555 5.35532 13.5002 4.38526 13.5002 3.18864M6.50017 3.18864C6.50017 1.99202 7.54484 1.02197 8.83351 1.02197H11.1669C12.4555 1.02197 13.5002 1.99202 13.5002 3.18864M10.0002 10.772H13.5002M10.0002 15.1053H13.5002M6.50017 10.772H6.51184M6.50017 15.1053H6.51184" stroke="#39C381" stroke-width="1.95" stroke-linecap="round"/>
</svg>
