<svg width="52" height="46" viewBox="0 0 52 46" fill="none" xmlns="http://www.w3.org/2000/svg">
<path d="M31.1505 0H7.07402C3.16714 0 0 3.01054 0 6.72423V39.0477C0 42.7614 3.16714 45.772 7.07402 45.772H31.1505C35.0574 45.772 38.2245 42.7614 38.2245 39.0477V6.72423C38.2245 3.01054 35.0574 0 31.1505 0Z" fill="#347ED5"/>
<path d="M44.9259 6.96027H20.8494C16.9425 6.96027 13.7754 9.97081 13.7754 13.6845V32.0877C13.7754 35.8013 16.9425 38.8119 20.8494 38.8119H44.9259C48.8327 38.8119 51.9999 35.8013 51.9999 32.0877V13.6845C51.9999 9.97081 48.8327 6.96027 44.9259 6.96027Z" fill="#001E71"/>
<path d="M13.2806 4.94154C14.2905 3.98953 15.5787 3.34897 16.9772 3.10342L29.8857 0.837163C34.2681 0.0677714 38.2982 3.29539 38.2441 7.53122L38.0841 20.0529C38.0289 24.372 33.7654 27.5221 29.3484 26.5074L21.4976 24.7035C20.0289 24.366 18.7122 23.5902 17.7408 22.4898L11.4442 15.3571C9.07924 12.6781 9.26943 8.72314 11.8817 6.26043L13.2806 4.94154Z" fill="#347ED5"/>
<path d="M38.1498 14.4141C31.5609 15.0766 19.1376 19.1911 17.127 38.3399C23.9248 36.6526 39.1557 31.2028 38.1498 14.4141Z" fill="#36B77B"/>
<path d="M18.3852 6.96027C13.6071 11.3841 6.37178 21.8244 17.1441 38.34C21.4258 32.9724 29.4306 19.9368 18.3852 6.96027Z" fill="#50CC92"/>
<path d="M17.1266 38.34C15.7862 21.8715 5.12969 16.732 0 16.2208V27.9587C0.0496422 29.2328 0.848054 29.9839 1.24106 30.2001C3.92174 32.1348 13.0104 36.4328 17.1266 38.34Z" fill="#7BF0BA"/>
</svg>
